PathFileType	4	(X/Y/Z)	7_2_54_p0_0-221.trc
DataRate	CameraRate	NumFrames	NumMarkers	Units	OrigDataRate	OrigDataStartFrame	OrigNumFrames
56.0	56.0	6	27	m	56.0	83	222
Frame#	Time	RHip			RKnee			RAnkle			RBigToe			RSmallToe			RHeel			LHip			LKnee			LAnkle			LBigToe			LSmallToe			LHeel			Neck			Head			Nose			RShoulder			RElbow			RWrist			RThumb			RIndex			RPinky			LShoulder			LElbow			LWrist			LThumb			LIndex			LPinky			
		X1	Y1	Z1	X2	Y2	Z2	X3	Y3	Z3	X4	Y4	Z4	X5	Y5	Z5	X6	Y6	Z6	X7	Y7	Z7	X8	Y8	Z8	X9	Y9	Z9	X10	Y10	Z10	X11	Y11	Z11	X12	Y12	Z12	X13	Y13	Z13	X14	Y14	Z14	X15	Y15	Z15	X16	Y16	Z16	X17	Y17	Z17	X18	Y18	Z18	X19	Y19	Z19	X20	Y20	Z20	X21	Y21	Z21	X22	Y22	Z22	X23	Y23	Z23	X24	Y24	Z24	X25	Y25	Z25	X26	Y26	Z26	X27	Y27	Z27	
83	1.4821428571428572	0.32290211431193433	0.2754172904223456	1.2363911486585184	0.3185155263734901	0.26045922164609175	1.5908977706494742	0.281777630401669	0.2899354770996555	2.026290938860847	0.2505212205234003	0.08511916923989317	1.9898753772999271	0.30959270378724046	0.11337611685115541	2.0000264605833826	0.2598164156210622	0.3358026866281764	2.1196104226317685	0.0940378202829201	0.3152663145504091	1.2634651147656557	0.10039821773687653	0.2883869173758792	1.6155763091391877	0.13060118641797894	0.3217153789912374	2.0462840891370204	0.12942029448671288	0.08859557746626874	2.010342673661328	0.062116912393039875	0.1389020747308589	2.0170536626997633	0.14254498551787032	0.3334458652302236	2.083460152829246	0.20114881930698447	0.34105312217514516	0.6273421201027309	0.1864077942434018	0.34680016464019137	0.36849142836477167	0.183376433168524	0.2843363699212176	0.49649421470702737	0.38276317865127485	0.33130480487629843	0.7202195793558005	0.45118705768457196	0.3073919579701454	0.9677390254619163	0.4388108460179736	0.21806940175001352	1.2178036006119757	0.3709903662888453	0.18933631176750532	1.3183808615145665	0.3922782590694735	0.16187775141089014	1.3161781943513238	0.4272544085358653	0.19508796781382812	1.3223309741687954	0.03821358928463407	0.3756263984378713	0.7302118138472165	-0.025740837602023812	0.3653988256455606	1.0052770214012512	-0.039027398060073264	0.2809748685015968	1.2172482524008654	0.018430797582447908	0.2034450771674191	1.2805808843957998	-0.0016656022389612696	0.18712776711701862	1.3258850309975083	-0.04300304104690561	0.2742476837731514	1.366978826228863
84	1.5	0.31895330981576764	0.28817894350407425	1.2422380284702539	0.3179467485398708	0.26008259298108644	1.590811790998631	0.2822868430762097	0.2903444696555791	2.026232572904085	0.25058484906407946	0.08475560958855823	1.9904798750786679	0.318424029292715	0.10326428727334534	1.9920544518808316	0.2610801808429813	0.3355931435156675	2.115740382079674	0.09403046639107071	0.31558377277049926	1.2631760944666743	0.09892106609470651	0.2965670991069475	1.620395385782347	0.12725963620949188	0.309750309075078	2.037708188027434	0.12674232201752522	0.07815974138843208	2.001130084315329	0.061708932415687465	0.1413063633234908	2.0121405700063644	0.14220300739377703	0.3330248644182683	2.0840156775367507	0.20113724815225162	0.3409565779243793	0.6271761955450983	0.18640970558511663	0.347777111297153	0.36570847331356415	0.18646693063616093	0.2939364089452001	0.4984338120605638	0.38268901983988046	0.33132219060911083	0.7203956121429483	0.45116798836290223	0.30685863171470695	0.9675124981252317	0.4349324908668249	0.2165998370986122	1.2172388559609757	0.36825710158623237	0.20122434609066867	1.3222588366828323	0.3883338298168226	0.1748096487479583	1.3201617995724755	0.43154492645574843	0.19857726625463828	1.3246238327397826	0.03839058288845447	0.37578295230194053	0.7300290438988846	-0.02572922462823994	0.36543643986371	1.0048265489923516	-0.04137842878223985	0.27023864037695833	1.2128919336052093	0.011294724718219407	0.1907566843010645	1.276624138765839	-0.006468597052042396	0.17390657551805205	1.3159767134358347	-0.04062867710177291	0.2506840235619106	1.347752507014368
85	1.5178571428571428	0.31912579445877737	0.2882374620178802	1.2421083818419116	0.3181167329864075	0.2603577577421754	1.5909943381588423	0.2819513758141977	0.2905098847848706	2.0275099716407463	0.253868785081262	0.09486659085688	2.007974413561939	0.32282262801051925	0.11263237006618183	2.003723731980086	0.25820913896968195	0.3348125172590724	2.1122641842571963	0.09712532914062756	0.32676520134856313	1.2678115201952438	0.09884425324443094	0.29668010396658506	1.6201217363798686	0.12729089934943402	0.3099023403887495	2.03788497614125	0.12687107770209963	0.07825951595394184	2.00231144785116	0.06645050842450238	0.12875168435592094	2.002700449336261	0.14256081281295144	0.33379258752534025	2.0848778444024356	0.20083525925953938	0.34068619337615424	0.6232277489202718	0.18629354392664949	0.34755061118422553	0.36602090670596044	0.18642574199266795	0.29393478966150094	0.4982297150661875	0.38269820928772214	0.33139926459934893	0.7202713355360526	0.45119419056355986	0.3067812804783457	0.9671769148031397	0.4349237456478999	0.21634995441977067	1.2176336403693624	0.36824248471420157	0.20156238074781196	1.3223843268894402	0.3890872859784221	0.17554222833734648	1.3238206453475296	0.4321790653621058	0.19857987850510797	1.3240988495058408	0.038319016293853585	0.3757762269094875	0.7301576281200395	-0.0253458074916637	0.36569653008417075	1.0016424581980554	-0.045776344147713574	0.2664899227346611	1.2109092225036537	0.007489131269650973	0.18707073901119586	1.279057976450896	-0.0010475920467233376	0.16224610927031521	1.312880576318977	-0.0404675203493655	0.2500599902523899	1.3518971785899951
86	1.5357142857142858	0.31931331039331656	0.28838715911505425	1.2421744353680972	0.31375326249277286	0.273705983425155	1.6034404111230154	0.2809723193126112	0.29045623941064486	2.031840233971219	0.25039934894206234	0.0843495140449636	1.9902016135393903	0.3181063949481164	0.10520932803687884	1.988602202452483	0.2578617075433221	0.3344723962942398	2.111772083089405	0.09650809072597	0.3264084226306778	1.263115109806533	0.09883792229863463	0.2966820303655224	1.6202814124147638	0.13055704131337342	0.3217478580337378	2.046592145276037	0.12666356630283399	0.07769841208324037	2.001185673575718	0.06639259918172875	0.12842143229644384	2.0019995088723714	0.14225461451962837	0.33338583207959355	2.084161530424079	0.2007789887625572	0.3406408812646316	0.623288489291365	0.18641987685416841	0.34764944746329896	0.365911195874226	0.18651106102201792	0.29472873863721377	0.49502825219228186	0.3827961022213489	0.33131332299684413	0.7202705076728743	0.45130480954006513	0.30691161157749164	0.9671163618175798	0.43491127549403574	0.21644832577629824	1.2175793247731923	0.3684463734326371	0.20153349257081654	1.3225835807396982	0.38921221212600227	0.17577542254210915	1.3238527784875642	0.43311220406410683	0.19900609890277085	1.3239667714487224	0.038171486750825545	0.375965038908015	0.7305238280995645	-0.026492309575315245	0.3659313063633865	0.996787079254001	-0.048117777567524604	0.25594225265927495	1.2061468272681648	0.001991901481083796	0.18355571030722168	1.2653358489397732	-0.010090782680696379	0.13952094080149835	1.2959254247525727	-0.04715747019778891	0.23644224973530975	1.341142955833823
87	1.5535714285714286	0.3231773347548761	0.275218537402675	1.235502051967181	0.31441064212382086	0.27369336042831505	1.598959156397952	0.282148354459151	0.2913055303667929	2.0376607834734295	0.2534287370765505	0.09414808385798834	2.006483218245278	0.3177801355406639	0.10922605758679858	2.00085383931539	0.25965502224714815	0.3356093892409833	2.1184700978102753	0.10134844484012434	0.32973883319862296	1.268203499881115	0.09873933233432969	0.2967107885955292	1.6202620072796263	0.1306518682938346	0.3218548241182283	2.0466739829847023	0.12182751846537644	0.07544102427360565	2.000259249934404	0.06633605171414465	0.12828328297943592	2.0021736498256333	0.14229339427340054	0.33345841014367067	2.0838048935671383	0.20074456599388762	0.34212002947042	0.6161914193238623	0.18638941632138656	0.34841861691964227	0.36251578673242385	0.18661614908790344	0.29493035937262574	0.4948172348170108	0.38285678435564574	0.3313182747890585	0.7204451183449201	0.4511571475165561	0.30666810649617093	0.9671313225000491	0.4354148670881241	0.21630673905947423	1.2142602985845723	0.3721698149308083	0.186409786770663	1.320180555099235	0.392575858558987	0.16046132979796446	1.3227362146180393	0.43741318549063984	0.20106613567778303	1.3245549721144914	0.03824265113446471	0.37582352524375606	0.7302878182245052	-0.03256476997660742	0.3512621033814101	0.9926015143204302	-0.05045274522075379	0.24446113433479102	1.200523708547132	-0.0016794303962804247	0.17219054084435406	1.2592247509117844	-0.01284102147144057	0.12923778634859973	1.2852587364343036	-0.045969984139500895	0.2342810458247804	1.345915693024556
88	1.5714285714285714	0.31946615624372765	0.2881295394420427	1.241428903726502	0.31360741656820307	0.27374022305537427	1.603058169165111	0.27809437790878055	0.3059545995849324	2.048725853454417	0.2539587104696801	0.09486219103053663	2.007932587940731	0.31790639322137687	0.10925975186529534	2.0011967625766607	0.2597398648231429	0.33568312480161183	2.118150644446513	0.10019026129887701	0.3286186687494295	1.267262819515687	0.10256322187014676	0.2992407657700799	1.6161958940668482	0.13076662651381013	0.32199633028235164	2.0464319950029544	0.12642779544797836	0.0778246837528002	2.0019935633377672	0.06629080995741761	0.1283066377806938	2.0021602786309662	0.14258015847833805	0.33413924667773265	2.084046352843939	0.20112877869049728	0.34241440003721224	0.619625854098155	0.18626991596924683	0.34909635629073943	0.35846962983345804	0.19040087075425188	0.2970719017105171	0.4951417438436944	0.3833520241693711	0.33166768172053485	0.7245850072605428	0.4553691133500859	0.3088922077082722	0.9676744710441013	0.4426039262112653	0.2052035150231243	1.2088984985290268	0.3751591149915949	0.17460000576270993	1.3103438504658276	0.39495209500475476	0.14866123641664178	1.3040545363219003	0.4329681164767172	0.19844082203409888	1.3232054883591224	0.038201895681203156	0.3757162108238918	0.7301044345965921	-0.032858885274539264	0.35236139334366884	0.988215216801296	-0.04774753501626686	0.22237974907385002	1.1906319823035325	-0.004181553354832201	0.16044913387870816	1.2578935576761334	-0.01750067663159819	0.1108533867427018	1.2725809852986047	-0.05113689854429349	0.21280880058704404	1.3260551272158196
